<svg xmlns="http://www.w3.org/2000/svg" xmlns:xlink="http://www.w3.org/1999/xlink" style="isolation:isolate" width="44pt" height="64" viewBox="0 0 44 48"><defs><clipPath id="_clipPath_QdGBxEAuB1LAgNyeookMpfT1PDaOVqjT"><rect width="44" height="48"/></clipPath></defs><g clip-path="url(#_clipPath_QdGBxEAuB1LAgNyeookMpfT1PDaOVqjT)"><g><path fill="gray" d="M 12.016 43.829 L 12.163 27.678 L 19.221 31.797 L 19.221 48 C 19.139 47.959 19.057 47.915 18.974 47.871 L 18.962 47.864 L 12.016 43.829 Z"/><path fill="rgb(#_lgradient_1)" fill-rule="evenodd" d="M 36.572 7.542 L 41.019 10.109 C 42.719 11.133 43.781 13.005 43.781 14.989 L 43.781 33.545 C 43.781 35.579 42.687 37.473 40.927 38.488 L 36.572 40.992 L 36.572 7.542 Z"/><path fill="rgb(#_lgradient_1)" fill-rule="evenodd" d="M 24.755 0.719 C 23.908 0.249 22.957 0 22.002 0 C 21.051 0 20.099 0.249 19.255 0.717 L 2.993 10.104 C 1.285 11.13 0.223 13.004 0.223 14.988 L 0.223 33.545 C 0.223 35.576 1.317 37.473 3.077 38.488 L 7.432 40.992 L 7.432 15.734 L 24.494 5.883 L 24.494 6.396 C 24.494 20.505 24.494 28.063 24.494 47.948 C 24.619 47.884 31.589 44.04 31.589 44.04 L 31.589 7.96 C 31.589 5.926 30.496 4.032 28.735 3.017 L 24.755 0.719 Z"/><radialGradient id="_rgradient_0" cx="1.007" cy="-.04" r="1" fx="1.007" fy="-.04" gradientTransform="matrix(7.209,0,0,29.368,0.223,11.616)" gradientUnits="userSpaceOnUse"><stop offset="26.042%" stop-opacity="1" style="stop-color:#434343"/><stop offset="100%" stop-opacity="1" style="stop-color:#bcbcbc"/></radialGradient><path fill="url(#_rgradient_0)" d="M 0.223 33.537 L 0.223 14.98 C 0.223 13.922 0.525 12.896 1.065 12.012 C 1.606 11.129 1.075 11.997 1.075 11.997 L 7.432 15.726 L 7.432 40.983 L 3.077 38.48 C 1.317 37.465 0.223 35.567 0.223 33.537 Z"/><linearGradient id="_lgradient_0" x1=".206" x2=".652" y1="-.264" y2=".518" gradientTransform="matrix(24.275,0,0,24.41,0.219,0.091)" gradientUnits="userSpaceOnUse"><stop offset="2.609%" stop-opacity="1" style="stop-color:#cfcfcf"/><stop offset="70.003%" stop-opacity="1" style="stop-color:#585858"/></linearGradient><path fill="url(#_lgradient_0)" fill-rule="evenodd" d="M 24.494 3.942 C 24.494 2.198 24.293 1.244 22.741 0.476 C 21.189 -0.292 20.099 0.249 19.255 0.717 L 2.993 10.104 C 2.201 10.58 1.548 11.238 1.075 12.005 C 1.075 12.005 0.223 13.158 0.223 15.427 C 0.223 17.696 0.223 24.502 0.223 24.502 C 0.223 24.502 0.112 24.048 1.075 21.326 C 2.038 18.603 7.483 15.718 7.483 15.718 L 24.494 5.883"/><radialGradient id="_rgradient_1" cx="1.007" cy="-.041" r="1" fx="1.007" fy="-.041" gradientTransform="matrix(7.209,0,0,28.46,12.02,18.784)" gradientUnits="userSpaceOnUse"><stop offset="26.042%" stop-opacity="1" style="stop-color:#434343"/><stop offset="100%" stop-opacity="1" style="stop-color:#bcbcbc"/></radialGradient><path fill="url(#_rgradient_1)" d="M 12.02 39.798 L 12.02 22.149 C 12.02 21.091 12.322 20.064 12.863 19.181 C 13.404 18.297 12.872 19.166 12.872 19.166 L 19.229 22.894 L 19.229 47.244 L 14.875 44.741 C 13.114 43.726 12.02 41.828 12.02 39.798 Z"/><linearGradient id="_lgradient_1" x1="1.928" x2=".265" y1=".07" y2="1.482" gradientTransform="matrix(12.474,0,0,19.997,12.016,11.673)" gradientUnits="userSpaceOnUse"><stop offset="2.609%" stop-opacity="1" style="stop-color:#656565"/><stop offset="70.003%" stop-opacity="1" style="stop-color:#585858"/></linearGradient><path fill="url(#_lgradient_1)" d="M 12.872 19.174 C 13.344 18.407 13.998 17.748 14.79 17.272 L 24.49 11.673 L 24.49 19.874 L 19.279 22.886 C 19.279 22.886 13.835 25.772 12.872 28.494 C 12.179 30.451 12.042 31.236 12.02 31.522 L 12.02 31.67 C 12.02 31.67 12.011 31.634 12.02 31.522 L 12.02 22.595 C 12.02 20.327 12.872 19.174 12.872 19.174 Z"/></g></g></svg>